<?xml version="1.0" encoding="UTF-8"?>
<svg width="1920px" height="425px" viewBox="0 0 1920 425" version="1.1" xmlns="http://www.w3.org/2000/svg" xmlns:xlink="http://www.w3.org/1999/xlink" style="background: #FFFFFF;">
    <!-- Generator: Sketch 47.1 (45422) - http://www.bohemiancoding.com/sketch -->
    <title>interactive</title>
    <desc>Created with Sketch.</desc>
    <defs>
        <polygon id="path-1" points="0 27.1814917 174.411373 27.1814917 174.411373 0 0 0"></polygon>
    </defs>
    <g id="Interactive" stroke="none" stroke-width="1" fill="none" fill-rule="evenodd">
        <g id="interactive">
            <rect id="bg" fill="#FFFFFF" x="0" y="0" width="1920" height="425"></rect>
            <g id="social" transform="translate(1548.000000, 214.000000)" fill="#000000">
                <path d="M50.1120001,11.368 L45.6320001,11.368 L45.6320001,15.976 L43.3280001,15.976 L43.3280001,19.176 L45.6320001,19.176 L45.6320001,29.512 C45.6320001,31.72 46.3360001,33.192 50.2080001,33.192 L50.7840001,33.192 C51.4880001,33.192 52.1920001,33.16 52.8960001,33.128 L52.8960001,29.736 C52.5760001,29.768 52.2560001,29.8 51.9680001,29.8 C50.1440001,29.8 50.1120001,29.416 50.1120001,28.424 L50.1120001,19.176 L52.8960001,19.176 L52.8960001,15.976 L50.1120001,15.976 L50.1120001,11.368 Z M64.8800001,28.008 L69.4880001,28.008 C68.3040001,32.104 64.9120001,33.448 62.0000001,33.448 C57.2000001,33.448 53.5200001,31.144 53.5200001,24.136 C53.5200001,22.088 54.2240001,15.528 61.6800001,15.528 C65.0400001,15.528 69.6800001,17.128 69.6800001,24.904 L69.6800001,25.704 L58.0000001,25.704 C58.1280001,26.984 58.3840001,29.864 62.0000001,29.864 C63.2480001,29.864 64.5280001,29.224 64.8800001,28.008 Z M58.1280001,22.792 L65.0720001,22.792 C64.8160001,20.04 63.0560001,19.208 61.6160001,19.208 C59.5040001,19.208 58.3840001,20.552 58.1280001,22.792 Z M87.8080001,10.024 L87.8080001,33 L83.4240001,33 L83.4240001,30.856 L83.3600001,30.856 C82.2720001,32.776 80.2880001,33.448 78.4320001,33.448 C73.3760001,33.448 71.2640001,28.968 71.2640001,24.296 C71.2640001,18.408 74.5920001,15.528 78.3360001,15.528 C81.2160001,15.528 82.5600001,17.096 83.2640001,18.184 L83.3280001,18.184 L83.3280001,10.024 L87.8080001,10.024 Z M75.8720001,24.616 C75.8720001,26.632 76.6720001,29.768 79.5520001,29.768 C82.4000001,29.768 83.5200001,27.4 83.5200001,24.872 C83.5200001,22.152 82.7520001,19.4 79.6800001,19.4 C76.8320001,19.4 75.8720001,21.928 75.8720001,24.616 Z M100.848,24.328 L106.448,15.976 L101.168,15.976 L98.3520001,20.936 L95.4720001,15.976 L90.0320001,15.976 L95.6000001,24.328 L89.8080001,33 L95.2160001,33 L98.1600001,27.88 L101.104,33 L106.64,33 L100.848,24.328 Z M120.608,24.616 C120.608,21.928 119.648,19.4 116.8,19.4 C113.728,19.4 112.96,22.152 112.96,24.872 C112.96,27.4 114.08,29.768 116.928,29.768 C119.808,29.768 120.608,26.632 120.608,24.616 Z M113.152,10.024 L113.152,18.184 L113.216,18.184 C113.92,17.096 115.264,15.528 118.144,15.528 C121.888,15.528 125.216,18.408 125.216,24.296 C125.216,28.968 123.104,33.448 118.048,33.448 C116.192,33.448 114.208,32.776 113.12,30.856 L113.056,30.856 L113.056,33 L108.672,33 L108.672,10.024 L113.152,10.024 Z M137.968,28.008 L142.576,28.008 C141.392,32.104 138,33.448 135.088,33.448 C130.288,33.448 126.608,31.144 126.608,24.136 C126.608,22.088 127.312,15.528 134.768,15.528 C138.128,15.528 142.768,17.128 142.768,24.904 L142.768,25.704 L131.088,25.704 C131.216,26.984 131.472,29.864 135.088,29.864 C136.336,29.864 137.616,29.224 137.968,28.008 Z M131.216,22.792 L138.16,22.792 C137.904,20.04 136.144,19.208 134.704,19.208 C132.592,19.208 131.472,20.552 131.216,22.792 Z M159.136,20.456 L159.136,29.672 C159.136,31.688 159.584,32.136 160.128,32.328 L160.128,33 L155.296,33 C155.04,32.2 154.976,31.944 154.88,30.984 C153.856,32.04 152.416,33.448 149.376,33.448 C146.816,33.448 144.192,32.008 144.192,28.488 C144.192,25.16 146.304,23.464 149.152,23.048 L153.184,22.44 C153.888,22.344 154.752,22.056 154.752,21.096 C154.752,19.208 152.96,19.112 151.808,19.112 C149.568,19.112 149.184,20.488 149.056,21.48 L144.736,21.48 C145.248,16.264 148.864,15.528 152.352,15.528 C154.752,15.528 159.136,16.264 159.136,20.456 Z M154.752,26.888 L154.752,24.712 C154.304,25.064 153.568,25.352 151.712,25.64 C150.048,25.928 148.672,26.344 148.672,28.2 C148.672,29.768 149.888,30.248 150.752,30.248 C152.736,30.248 154.752,28.968 154.752,26.888 Z M172.848,26.792 C172.848,27.592 172.08,29.768 169.808,29.768 C166.416,29.768 166.352,26.088 166.352,24.232 C166.352,22.12 167.088,19.304 169.904,19.304 L170.128,19.304 C172.048,19.304 172.688,20.968 172.88,22.056 L177.424,22.056 C177.008,16.744 172.592,15.528 169.904,15.528 C164.144,15.528 161.744,19.464 161.744,24.968 C161.744,28.552 163.216,33.448 169.616,33.448 C175.856,33.448 177.232,28.552 177.392,26.792 L172.848,26.792 Z M196.544,24.488 C196.544,30.632 192.416,33.448 187.84,33.448 C183.264,33.448 179.136,30.632 179.136,24.488 C179.136,18.344 183.264,15.528 187.84,15.528 C192.416,15.528 196.544,18.344 196.544,24.488 Z M191.936,24.488 C191.936,22.312 191.296,19.304 187.84,19.304 C184.384,19.304 183.744,22.312 183.744,24.488 C183.744,26.664 184.384,29.672 187.84,29.672 C191.296,29.672 191.936,26.664 191.936,24.488 Z M214.672,21.224 C214.672,17.48 212.08,15.528 208.752,15.528 C205.52,15.528 204.24,17.448 203.632,18.472 L203.568,18.472 L203.568,15.976 L199.28,15.976 L199.28,33 L203.76,33 L203.76,23.24 C203.76,20.648 205.296,19.304 207.28,19.304 C210.128,19.304 210.192,21.416 210.192,22.664 L210.192,33 L214.672,33 L214.672,21.224 Z M232.448,21.16 C232.096,16.36 228.128,15.528 224.8,15.528 C219.488,15.528 217.92,18.728 217.92,21.224 C217.92,27.592 228.48,25.448 228.48,28.296 C228.48,28.936 227.936,30.056 225.632,30.056 C222.816,30.056 221.92,29 221.92,27.56 L217.312,27.56 C217.44,32.104 221.632,33.448 225.504,33.448 C228.16,33.448 232.96,32.552 232.96,27.592 C232.96,21.32 222.304,23.272 222.304,20.584 C222.304,19.848 222.624,18.92 225.056,18.92 C227.488,18.92 227.872,20.072 228.064,21.16 L232.448,21.16 Z M240.848,11.368 L236.368,11.368 L236.368,15.976 L234.064,15.976 L234.064,19.176 L236.368,19.176 L236.368,29.512 C236.368,31.72 237.072,33.192 240.944,33.192 L241.52,33.192 C242.224,33.192 242.928,33.16 243.632,33.128 L243.632,29.736 C243.312,29.768 242.992,29.8 242.704,29.8 C240.88,29.8 240.848,29.416 240.848,28.424 L240.848,19.176 L243.632,19.176 L243.632,15.976 L240.848,15.976 L240.848,11.368 Z"></path>
                <path d="M18.792,20.968 C18.792,19.4 17.736,18.248 16.232,18.248 C14.024,18.248 12.488,20.584 12.488,22.568 C12.488,24.232 13.416,25.416 14.984,25.416 C17.256,25.416 18.792,23.08 18.792,20.968 Z M19.752,17.224 L20.168,15.528 L22.984,15.528 L21.128,23.688 C21.032,24.072 20.904,24.616 20.904,25.032 C20.904,25.416 21.032,25.704 21.384,25.704 C23.08,25.704 25,23.56 25,20.072 C25,14.856 21.192,11.976 16.264,11.976 C10.76,11.976 7.14400001,16.136 7.14400001,21.576 C7.14400001,27.272 11.176,31.048 16.712,31.048 C19.368,31.048 21.736,30.024 23.432,28.456 L26.28,28.456 C24.04,31.752 20.52,33.608 16.52,33.608 C9.60800001,33.608 3.97600001,28.488 3.97600001,21.512 C3.97600001,14.664 9.57600001,9.416 16.328,9.416 C22.12,9.416 27.592,13.32 27.592,19.304 C27.592,26.184 21.64,28.616 19.432,28.616 C18.504,28.616 17.672,28.072 17.608,26.92 L17.544,26.888 C16.712,27.816 15.432,28.616 14.184,28.616 C11.4,28.616 9.03200001,26.056 9.03200001,23.048 C9.03200001,19.048 11.752,15.144 15.88,15.144 C17.48,15.144 18.824,15.72 19.752,17.224 Z"></path>
                <path d="M23.896,63.752 L23.512,66.632 L20.408,66.632 L19.512,73 L16.504,73 L17.4,66.632 L14.296,66.632 L13.4,73 L10.392,73 L11.288,66.632 L8.18400001,66.632 L8.56800001,63.752 L11.672,63.752 L12.216,59.912 L9.11200001,59.912 L9.49600001,57.032 L12.6,57.032 L13.496,50.664 L16.504,50.664 L15.608,57.032 L18.712,57.032 L19.608,50.664 L22.616,50.664 L21.72,57.032 L24.824,57.032 L24.44,59.912 L21.336,59.912 L20.792,63.752 L23.896,63.752 Z M18.328,59.912 L15.224,59.912 L14.68,63.752 L17.784,63.752 L18.328,59.912 Z"></path>
                <path d="M50.1120001,51.368 L45.6320001,51.368 L45.6320001,55.976 L43.3280001,55.976 L43.3280001,59.176 L45.6320001,59.176 L45.6320001,69.512 C45.6320001,71.72 46.3360001,73.192 50.2080001,73.192 L50.7840001,73.192 C51.4880001,73.192 52.1920001,73.16 52.8960001,73.128 L52.8960001,69.736 C52.5760001,69.768 52.2560001,69.8 51.9680001,69.8 C50.1440001,69.8 50.1120001,69.416 50.1120001,68.424 L50.1120001,59.176 L52.8960001,59.176 L52.8960001,55.976 L50.1120001,55.976 L50.1120001,51.368 Z M64.8800001,68.008 L69.4880001,68.008 C68.3040001,72.104 64.9120001,73.448 62.0000001,73.448 C57.2000001,73.448 53.5200001,71.144 53.5200001,64.136 C53.5200001,62.088 54.2240001,55.528 61.6800001,55.528 C65.0400001,55.528 69.6800001,57.128 69.6800001,64.904 L69.6800001,65.704 L58.0000001,65.704 C58.1280001,66.984 58.3840001,69.864 62.0000001,69.864 C63.2480001,69.864 64.5280001,69.224 64.8800001,68.008 Z M58.1280001,62.792 L65.0720001,62.792 C64.8160001,60.04 63.0560001,59.208 61.6160001,59.208 C59.5040001,59.208 58.3840001,60.552 58.1280001,62.792 Z M87.8080001,50.024 L87.8080001,73 L83.4240001,73 L83.4240001,70.856 L83.3600001,70.856 C82.2720001,72.776 80.2880001,73.448 78.4320001,73.448 C73.3760001,73.448 71.2640001,68.968 71.2640001,64.296 C71.2640001,58.408 74.5920001,55.528 78.3360001,55.528 C81.2160001,55.528 82.5600001,57.096 83.2640001,58.184 L83.3280001,58.184 L83.3280001,50.024 L87.8080001,50.024 Z M75.8720001,64.616 C75.8720001,66.632 76.6720001,69.768 79.5520001,69.768 C82.4000001,69.768 83.5200001,67.4 83.5200001,64.872 C83.5200001,62.152 82.7520001,59.4 79.6800001,59.4 C76.8320001,59.4 75.8720001,61.928 75.8720001,64.616 Z M100.848,64.328 L106.448,55.976 L101.168,55.976 L98.3520001,60.936 L95.4720001,55.976 L90.0320001,55.976 L95.6000001,64.328 L89.8080001,73 L95.2160001,73 L98.1600001,67.88 L101.104,73 L106.64,73 L100.848,64.328 Z M120.608,64.616 C120.608,61.928 119.648,59.4 116.8,59.4 C113.728,59.4 112.96,62.152 112.96,64.872 C112.96,67.4 114.08,69.768 116.928,69.768 C119.808,69.768 120.608,66.632 120.608,64.616 Z M113.152,50.024 L113.152,58.184 L113.216,58.184 C113.92,57.096 115.264,55.528 118.144,55.528 C121.888,55.528 125.216,58.408 125.216,64.296 C125.216,68.968 123.104,73.448 118.048,73.448 C116.192,73.448 114.208,72.776 113.12,70.856 L113.056,70.856 L113.056,73 L108.672,73 L108.672,50.024 L113.152,50.024 Z M137.968,68.008 L142.576,68.008 C141.392,72.104 138,73.448 135.088,73.448 C130.288,73.448 126.608,71.144 126.608,64.136 C126.608,62.088 127.312,55.528 134.768,55.528 C138.128,55.528 142.768,57.128 142.768,64.904 L142.768,65.704 L131.088,65.704 C131.216,66.984 131.472,69.864 135.088,69.864 C136.336,69.864 137.616,69.224 137.968,68.008 Z M131.216,62.792 L138.16,62.792 C137.904,60.04 136.144,59.208 134.704,59.208 C132.592,59.208 131.472,60.552 131.216,62.792 Z M159.136,60.456 L159.136,69.672 C159.136,71.688 159.584,72.136 160.128,72.328 L160.128,73 L155.296,73 C155.04,72.2 154.976,71.944 154.88,70.984 C153.856,72.04 152.416,73.448 149.376,73.448 C146.816,73.448 144.192,72.008 144.192,68.488 C144.192,65.16 146.304,63.464 149.152,63.048 L153.184,62.44 C153.888,62.344 154.752,62.056 154.752,61.096 C154.752,59.208 152.96,59.112 151.808,59.112 C149.568,59.112 149.184,60.488 149.056,61.48 L144.736,61.48 C145.248,56.264 148.864,55.528 152.352,55.528 C154.752,55.528 159.136,56.264 159.136,60.456 Z M154.752,66.888 L154.752,64.712 C154.304,65.064 153.568,65.352 151.712,65.64 C150.048,65.928 148.672,66.344 148.672,68.2 C148.672,69.768 149.888,70.248 150.752,70.248 C152.736,70.248 154.752,68.968 154.752,66.888 Z M172.848,66.792 C172.848,67.592 172.08,69.768 169.808,69.768 C166.416,69.768 166.352,66.088 166.352,64.232 C166.352,62.12 167.088,59.304 169.904,59.304 L170.128,59.304 C172.048,59.304 172.688,60.968 172.88,62.056 L177.424,62.056 C177.008,56.744 172.592,55.528 169.904,55.528 C164.144,55.528 161.744,59.464 161.744,64.968 C161.744,68.552 163.216,73.448 169.616,73.448 C175.856,73.448 177.232,68.552 177.392,66.792 L172.848,66.792 Z M196.544,64.488 C196.544,70.632 192.416,73.448 187.84,73.448 C183.264,73.448 179.136,70.632 179.136,64.488 C179.136,58.344 183.264,55.528 187.84,55.528 C192.416,55.528 196.544,58.344 196.544,64.488 Z M191.936,64.488 C191.936,62.312 191.296,59.304 187.84,59.304 C184.384,59.304 183.744,62.312 183.744,64.488 C183.744,66.664 184.384,69.672 187.84,69.672 C191.296,69.672 191.936,66.664 191.936,64.488 Z M214.672,61.224 C214.672,57.48 212.08,55.528 208.752,55.528 C205.52,55.528 204.24,57.448 203.632,58.472 L203.568,58.472 L203.568,55.976 L199.28,55.976 L199.28,73 L203.76,73 L203.76,63.24 C203.76,60.648 205.296,59.304 207.28,59.304 C210.128,59.304 210.192,61.416 210.192,62.664 L210.192,73 L214.672,73 L214.672,61.224 Z M232.448,61.16 C232.096,56.36 228.128,55.528 224.8,55.528 C219.488,55.528 217.92,58.728 217.92,61.224 C217.92,67.592 228.48,65.448 228.48,68.296 C228.48,68.936 227.936,70.056 225.632,70.056 C222.816,70.056 221.92,69 221.92,67.56 L217.312,67.56 C217.44,72.104 221.632,73.448 225.504,73.448 C228.16,73.448 232.96,72.552 232.96,67.592 C232.96,61.32 222.304,63.272 222.304,60.584 C222.304,59.848 222.624,58.92 225.056,58.92 C227.488,58.92 227.872,60.072 228.064,61.16 L232.448,61.16 Z M240.848,51.368 L236.368,51.368 L236.368,55.976 L234.064,55.976 L234.064,59.176 L236.368,59.176 L236.368,69.512 C236.368,71.72 237.072,73.192 240.944,73.192 L241.52,73.192 C242.224,73.192 242.928,73.16 243.632,73.128 L243.632,69.736 C243.312,69.768 242.992,69.8 242.704,69.8 C240.88,69.8 240.848,69.416 240.848,68.424 L240.848,59.176 L243.632,59.176 L243.632,55.976 L240.848,55.976 L240.848,51.368 Z"></path>
            </g>
            <path d="M144.583311,98 L128,98 L128,177.178984 L144.583311,177.178984 L144.583311,98 Z M488.178984,154.791656 L488.178984,145.791656 L409,145.791656 L409,154.791656 L488.178984,154.791656 Z M209.973584,98 L209.973584,177.178984 L194.827493,177.178984 L194.827493,169.790416 L194.606382,169.790416 C190.847499,176.407044 183.993063,178.722864 177.580849,178.722864 C160.113095,178.722864 152.816438,163.284065 152.816438,147.183603 C152.816438,126.89261 164.3142,116.967667 177.249183,116.967667 C187.19917,116.967667 191.842497,122.371247 194.274716,126.12067 L194.495827,126.12067 L194.495827,98 L209.973584,98 Z M168.736417,148.286374 C168.736417,155.233834 171.500302,166.040993 181.450289,166.040993 C191.28972,166.040993 195.15916,157.880485 195.15916,149.168591 C195.15916,139.795035 192.50583,130.311201 181.89251,130.311201 C172.053079,130.311201 168.736417,139.023095 168.736417,148.286374 Z M255.79555,159.975751 L271.715529,159.975751 C267.624979,174.091224 255.906105,178.722864 245.845563,178.722864 C229.262252,178.722864 216.54838,170.78291 216.54838,146.632217 C216.54838,139.57448 218.980599,116.967667 244.740009,116.967667 C256.348327,116.967667 272.378861,122.481524 272.378861,149.278868 L272.378861,152.035797 L232.026137,152.035797 C232.468359,156.446882 233.352802,166.371824 245.845563,166.371824 C250.157224,166.371824 254.57944,164.166282 255.79555,159.975751 Z M232.468359,142.000577 L256.458882,142.000577 C255.574439,132.516744 249.493892,129.649538 244.518898,129.649538 C237.222241,129.649538 233.352802,134.281178 232.468359,142.000577 Z M327.708592,133.950346 L327.708592,165.710162 C327.708592,172.657621 329.256368,174.201501 331.13581,174.863164 L331.13581,177.178984 L314.441943,177.178984 C313.5575,174.422055 313.336389,173.539838 313.004723,170.231524 C309.46695,173.87067 304.491956,178.722864 293.989192,178.722864 C285.144759,178.722864 276.079216,173.760393 276.079216,161.629908 C276.079216,150.161085 283.375873,144.316397 293.215304,142.882794 L307.145286,140.787529 C309.577505,140.456697 312.562501,139.464203 312.562501,136.155889 C312.562501,129.649538 306.371398,129.318707 302.391403,129.318707 C294.652525,129.318707 293.32586,134.060624 292.883638,137.479215 L277.958658,137.479215 C279.727544,119.504042 292.220306,116.967667 304.270845,116.967667 C312.562501,116.967667 327.708592,119.504042 327.708592,133.950346 Z M312.562501,156.116051 L312.562501,148.617206 C311.014725,149.830254 308.471951,150.822748 302.059737,151.815242 C296.310856,152.807737 291.556973,154.241339 291.556973,160.637413 C291.556973,166.040993 295.758079,167.69515 298.743075,167.69515 C305.59751,167.69515 312.562501,163.284065 312.562501,156.116051 Z M387.349984,136.376443 C386.133874,119.834873 372.425003,116.967667 360.927241,116.967667 C342.575043,116.967667 337.157828,127.995381 337.157828,136.596998 C337.157828,158.542148 373.641113,151.15358 373.641113,160.968245 C373.641113,163.173788 371.761671,167.033487 363.801682,167.033487 C354.072806,167.033487 350.977254,163.394342 350.977254,158.431871 L335.057275,158.431871 C335.499497,174.091224 349.982255,178.722864 363.35946,178.722864 C372.535559,178.722864 389.11887,175.635104 389.11887,158.542148 C389.11887,136.927829 352.303919,143.654734 352.303919,134.391455 C352.303919,131.855081 353.409473,128.657044 361.811684,128.657044 C370.213895,128.657044 371.54056,132.627021 372.203893,136.376443 L387.349984,136.376443 Z M128.552777,228.788684 L128.552777,287.45612 L144.030534,287.45612 L144.030534,228.788684 L128.552777,228.788684 Z M144.030534,207.505196 L128.552777,207.505196 L128.552777,221.841224 L144.030534,221.841224 L144.030534,207.505196 Z M207.079634,246.874134 C207.079634,233.971709 198.124646,227.244804 186.626883,227.244804 C175.460787,227.244804 171.038571,233.861432 168.938018,237.3903 L168.716907,237.3903 L168.716907,228.788684 L153.902482,228.788684 L153.902482,287.45612 L169.380239,287.45612 L169.380239,253.821594 C169.380239,244.889145 174.686899,240.257506 181.541334,240.257506 C191.380766,240.257506 191.601877,247.535797 191.601877,251.836605 L191.601877,287.45612 L207.079634,287.45612 L207.079634,246.874134 Z M257.395352,271.135104 L251.867581,287.45612 L234.399827,287.45612 L262.702011,208.277136 L281.828097,208.277136 L309.798616,287.45612 L291.778084,287.45612 L286.692535,271.135104 L257.395352,271.135104 Z M271.988666,226.142032 L261.817568,257.460739 L282.049208,257.460739 L272.209777,226.142032 L271.988666,226.142032 Z M348.278401,266.062356 C348.278401,268.819284 345.625072,276.318129 337.775638,276.318129 C326.056764,276.318129 325.835653,263.636259 325.835653,257.240185 C325.835653,249.961894 328.378428,240.257506 338.107304,240.257506 L338.881192,240.257506 C345.514516,240.257506 347.725624,245.991917 348.388957,249.741339 L364.087825,249.741339 C362.650605,231.435335 347.393958,227.244804 338.107304,227.244804 C318.20733,227.244804 309.915674,240.808891 309.915674,259.776559 C309.915674,272.127598 315.001223,289 337.112305,289 C358.67061,289 363.424493,272.127598 363.97727,266.062356 L348.278401,266.062356 Z M388.527074,212.908776 L373.049316,212.908776 L373.049316,228.788684 L365.089327,228.788684 L365.089327,239.816397 L373.049316,239.816397 L373.049316,275.435912 C373.049316,283.045035 375.481535,288.117783 388.85874,288.117783 L390.848737,288.117783 C393.280956,288.117783 395.713175,288.007506 398.145394,287.897229 L398.145394,276.207852 C397.03984,276.318129 395.934286,276.428406 394.939287,276.428406 C388.637629,276.428406 388.527074,275.105081 388.527074,271.68649 L388.527074,239.816397 L398.145394,239.816397 L398.145394,228.788684 L388.527074,228.788684 L388.527074,212.908776 Z M404.785222,228.788684 L404.785222,287.45612 L420.262979,287.45612 L420.262979,228.788684 L404.785222,228.788684 Z M420.262979,207.505196 L404.785222,207.505196 L404.785222,221.841224 L420.262979,221.841224 L420.262979,207.505196 Z M487.760308,258.122402 C487.760308,279.295612 473.498661,289 457.689237,289 C441.879814,289 427.618166,279.295612 427.618166,258.122402 C427.618166,236.949192 441.879814,227.244804 457.689237,227.244804 C473.498661,227.244804 487.760308,236.949192 487.760308,258.122402 Z M471.840329,258.122402 C471.840329,250.623557 469.629221,240.257506 457.689237,240.257506 C445.749253,240.257506 443.538145,250.623557 443.538145,258.122402 C443.538145,265.621247 445.749253,275.987298 457.689237,275.987298 C469.629221,275.987298 471.840329,265.621247 471.840329,258.122402 Z M548,246.874134 C548,233.971709 539.045012,227.244804 527.547249,227.244804 C516.381153,227.244804 511.958937,233.861432 509.858384,237.3903 L509.637273,237.3903 L509.637273,228.788684 L494.822848,228.788684 L494.822848,287.45612 L510.300605,287.45612 L510.300605,253.821594 C510.300605,244.889145 515.607265,240.257506 522.4617,240.257506 C532.301132,240.257506 532.522243,247.535797 532.522243,251.836605 L532.522243,287.45612 L548,287.45612 L548,246.874134 Z" id="ideas-in-action" fill="#000000"></path>
            <g id="logo/2-line" transform="translate(128.000000, 321.000000)">
                <g id="content" transform="translate(0.000000, -1.795580)">
                    <polygon id="Fill-1" fill="#E62B1E" points="1.46093872 23.7903591 0.418454157 22.2841436 1.41189359 22.2841436 1.96985083 23.114116 2.52174632 22.2841436 3.48446366 22.2841436 2.44211686 23.7718508 3.61327601 25.4624586 2.61997435 25.4624586 1.95758955 24.4605249 1.29534252 25.4624586 0.320363895 25.4624586"></polygon>
                    <path d="M4.64303088,24.8969613 L7.73976247,24.8969613 L7.73976247,24.2390884 L4.64303088,24.2390884 L4.64303088,24.8969613 Z M4.64303088,23.5813536 L7.73976247,23.5813536 L7.73976247,22.9234807 L4.64303088,22.9234807 L4.64303088,23.5813536 Z" id="Fill-2" fill="#000000"></path>
                    <path d="M9.24183848,25.4625691 L10.1125273,25.4625691 L10.1125273,22.284116 L9.24183848,22.284116 L9.24183848,25.4625691 Z M9.24183848,21.7922652 L10.1125273,21.7922652 L10.1125273,21.0729282 L9.24183848,21.0729282 L9.24183848,21.7922652 Z" id="Fill-3" fill="#000000"></path>
                    <path d="M10.6766152,22.284116 L11.5044584,22.284116 L11.5044584,22.7267956 L11.5229192,22.7267956 C11.7436223,22.3701657 12.1237221,22.1980663 12.4916983,22.1980663 C13.4176318,22.1980663 13.6505962,22.7205801 13.6505962,23.5074586 L13.6505962,25.4625691 L12.7799074,25.4625691 L12.7799074,23.6674033 C12.7799074,23.1447514 12.6265724,22.8866022 12.2219501,22.8866022 C11.7498219,22.8866022 11.5474418,23.1509669 11.5474418,23.796547 L11.5474418,25.4625691 L10.6766152,25.4625691 L10.6766152,22.284116 Z" id="Fill-4" fill="#000000"></path>
                    <path d="M15.6923477,22.855884 C15.1219914,22.855884 14.9258109,23.3477348 14.9258109,23.8702486 C14.9258109,24.3681768 15.1527135,24.8906906 15.6923477,24.8906906 C16.2687658,24.8906906 16.4404238,24.3866851 16.4404238,23.8640331 C16.4404238,23.3477348 16.2565045,22.855884 15.6923477,22.855884 L15.6923477,22.855884 Z M16.452685,25.0568508 L16.4404238,25.0568508 C16.2380437,25.4010497 15.8824665,25.5485635 15.4777064,25.5485635 C14.5211886,25.5485635 14.0551221,24.7248066 14.0551221,23.845663 C14.0551221,22.991105 14.5272504,22.198011 15.4593834,22.198011 C15.8332836,22.198011 16.2012599,22.3579558 16.4036399,22.6714917 L16.3975781,22.6714917 L16.4098394,22.6714917 L16.4098394,21.073011 L17.2805283,21.073011 L17.2805283,25.4625138 L16.452685,25.4625138 L16.452685,25.0568508 Z" id="Fill-6" fill="#000000"></path>
                    <path d="M19.9476466,23.5321271 C19.8678793,23.0894475 19.6778983,22.855884 19.2546774,22.855884 C18.7027819,22.855884 18.5433853,23.2862707 18.531124,23.5321271 L19.9476466,23.5321271 Z M18.531124,24.085442 C18.5556466,24.6387569 18.8253948,24.8906906 19.3099221,24.8906906 C19.6594375,24.8906906 19.9415848,24.6756354 19.9966917,24.4788122 L20.7632285,24.4788122 C20.5178651,25.2289503 19.9966917,25.5485635 19.2792,25.5485635 C18.2796988,25.5485635 17.6604352,24.8600276 17.6604352,23.8764641 C17.6604352,22.9234254 18.3164827,22.198011 19.2792,22.198011 C20.3584684,22.198011 20.8797796,23.1079558 20.8183354,24.085442 L18.531124,24.085442 Z" id="Fill-8" fill="#000000"></path>
                    <path d="M23.5652485,23.8825552 C23.5652485,23.3784116 23.3628684,22.8558978 22.8049112,22.8558978 C22.2346926,22.8558978 22.0506356,23.3661188 22.0506356,23.8825552 C22.0506356,24.3989917 22.2469539,24.8907044 22.8109729,24.8907044 C23.3813292,24.8907044 23.5652485,24.3989917 23.5652485,23.8825552 L23.5652485,23.8825552 Z M21.2105311,22.2840746 L22.0383743,22.2840746 L22.0383743,22.6898757 L22.0506356,22.6898757 C22.2592152,22.3517541 22.6025311,22.1980249 22.9950299,22.1980249 C23.9883316,22.1980249 24.4360751,23.0034116 24.4360751,23.9071409 C24.4360751,24.7554834 23.9700086,25.5485773 23.0440751,25.5485773 C22.6638375,25.5485773 22.3020608,25.3825552 22.093619,25.0690193 L22.0813577,25.0690193 L22.0813577,26.5814503 L21.2105311,26.5814503 L21.2105311,22.2840746 Z" id="Fill-10" fill="#000000"></path>
                    <path d="M26.9682641,23.5321271 C26.8884969,23.0894475 26.6985159,22.855884 26.275295,22.855884 C25.7233995,22.855884 25.5640029,23.2862707 25.5517416,23.5321271 L26.9682641,23.5321271 Z M25.5517416,24.085442 C25.5762641,24.6387569 25.8460124,24.8906906 26.3305397,24.8906906 C26.6800551,24.8906906 26.9622024,24.6756354 27.0173093,24.4788122 L27.7838461,24.4788122 C27.5384827,25.2289503 27.0173093,25.5485635 26.2998176,25.5485635 C25.3003164,25.5485635 24.6810527,24.8600276 24.6810527,23.8764641 C24.6810527,22.9234254 25.3371002,22.198011 26.2998176,22.198011 C27.379086,22.198011 27.9003971,23.1079558 27.838953,24.085442 L25.5517416,24.085442 Z" id="Fill-12" fill="#000000"></path>
                    <path d="M28.2311762,22.284116 L29.0590195,22.284116 L29.0590195,22.7267956 L29.0774803,22.7267956 C29.2981834,22.3701657 29.6782831,22.1980663 30.0462594,22.1980663 C30.9721929,22.1980663 31.2051572,22.7205801 31.2051572,23.5074586 L31.2051572,25.4625691 L30.3344684,25.4625691 L30.3344684,23.6674033 C30.3344684,23.1447514 30.1811335,22.8866022 29.7765112,22.8866022 C29.3043829,22.8866022 29.1020029,23.1509669 29.1020029,23.796547 L29.1020029,25.4625691 L28.2311762,25.4625691 L28.2311762,22.284116 Z" id="Fill-14" fill="#000000"></path>
                    <path d="M33.246895,22.855884 C32.6765387,22.855884 32.4803582,23.3477348 32.4803582,23.8702486 C32.4803582,24.3681768 32.7072608,24.8906906 33.246895,24.8906906 C33.8233131,24.8906906 33.994971,24.3866851 33.994971,23.8640331 C33.994971,23.3477348 33.8110518,22.855884 33.246895,22.855884 L33.246895,22.855884 Z M34.0072323,25.0568508 L33.994971,25.0568508 C33.792591,25.4010497 33.4370138,25.5485635 33.0322537,25.5485635 C32.0757359,25.5485635 31.6096694,24.7248066 31.6096694,23.845663 C31.6096694,22.991105 32.0817976,22.198011 33.0139306,22.198011 C33.3878309,22.198011 33.7558071,22.3579558 33.9581872,22.6714917 L33.9521254,22.6714917 L33.9643867,22.6714917 L33.9643867,21.073011 L34.8350755,21.073011 L34.8350755,25.4625138 L34.0072323,25.4625138 L34.0072323,25.0568508 Z" id="Fill-16" fill="#000000"></path>
                    <path d="M37.5022076,23.5321271 C37.4224404,23.0894475 37.2324594,22.855884 36.8092385,22.855884 C36.257343,22.855884 36.0979463,23.2862707 36.085685,23.5321271 L37.5022076,23.5321271 Z M36.085685,24.085442 C36.1102076,24.6387569 36.3799558,24.8906906 36.8644831,24.8906906 C37.2139986,24.8906906 37.4961458,24.6756354 37.5512527,24.4788122 L38.3177895,24.4788122 C38.0724261,25.2289503 37.5512527,25.5485635 36.833761,25.5485635 C35.8342599,25.5485635 35.2149962,24.8600276 35.2149962,23.8764641 C35.2149962,22.9234254 35.8710437,22.198011 36.833761,22.198011 C37.9130295,22.198011 38.4343406,23.1079558 38.3728964,24.085442 L36.085685,24.085442 Z" id="Fill-18" fill="#000000"></path>
                    <path d="M38.7651197,22.284116 L39.5929629,22.284116 L39.5929629,22.7267956 L39.6114238,22.7267956 C39.8321268,22.3701657 40.2122266,22.1980663 40.5802029,22.1980663 C41.5061363,22.1980663 41.7391007,22.7205801 41.7391007,23.5074586 L41.7391007,25.4625691 L40.8684119,25.4625691 L40.8684119,23.6674033 C40.8684119,23.1447514 40.715077,22.8866022 40.3104546,22.8866022 C39.8383264,22.8866022 39.6359463,23.1509669 39.6359463,23.796547 L39.6359463,25.4625691 L38.7651197,25.4625691 L38.7651197,22.284116 Z" id="Fill-20" fill="#000000"></path>
                    <path d="M43.3822779,22.284116 L44.0200024,22.284116 L44.0200024,22.868232 L43.3822779,22.868232 L43.3822779,24.441989 C43.3822779,24.7371547 43.4558456,24.8107735 43.7501164,24.8107735 C43.8421449,24.8107735 43.9279739,24.8046961 44.0200024,24.786326 L44.0200024,25.4686464 C43.872867,25.493232 43.6827482,25.4994475 43.5110903,25.4994475 C42.9775178,25.4994475 42.5114513,25.3765193 42.5114513,24.743232 L42.5114513,22.868232 L41.9842162,22.868232 L41.9842162,22.284116 L42.5114513,22.284116 L42.5114513,21.3312155 L43.3822779,21.3312155 L43.3822779,22.284116 Z" id="Fill-22" fill="#000000"></path>
                    <mask id="mask-2" fill="white">
                        <use xlink:href="#path-1"></use>
                    </mask>
                    <g id="Clip-25"></g>
                    <polygon id="Fill-24" fill="#000000" mask="url(#mask-2)" points="44.3385891 25.4624309 45.2092779 25.4624309 45.2092779 21.0729282 44.3385891 21.0729282"></polygon>
                    <path d="M47.3370926,25.8621271 C47.1469739,26.3724862 46.8465036,26.5814641 46.2455629,26.5814641 C46.0678432,26.5814641 45.8899857,26.5691713 45.7121283,26.550663 L45.7121283,25.831326 C45.8777245,25.8437569 46.0493824,25.8682044 46.2210404,25.8621271 C46.5215107,25.831326 46.619601,25.5177901 46.5215107,25.2658564 L45.4054584,22.2840884 L46.3375914,22.2840884 L47.0550831,24.4604696 L47.0673444,24.4604696 L47.7601758,22.2840884 L48.6615867,22.2840884 L47.3370926,25.8621271 Z" id="Fill-26" fill="#000000" mask="url(#mask-2)"></path>
                    <path d="M51.9542508,24.8907459 C52.5489919,24.8907459 52.7268494,24.3805249 52.7268494,23.8763812 C52.7268494,23.3661602 52.5489919,22.8559392 51.9542508,22.8559392 C51.3655715,22.8559392 51.187714,23.3661602 51.187714,23.8763812 C51.187714,24.3805249 51.3655715,24.8907459 51.9542508,24.8907459 M51.9542508,22.1980663 C52.953752,22.1980663 53.597676,22.8620166 53.597676,23.8763812 C53.597676,24.8846685 52.953752,25.5486188 51.9542508,25.5486188 C50.9608114,25.5486188 50.3170252,24.8846685 50.3170252,23.8763812 C50.3170252,22.8620166 50.9608114,22.1980663 51.9542508,22.1980663" id="Fill-27" fill="#000000" mask="url(#mask-2)"></path>
                    <path d="M53.9161525,22.284116 L54.7439957,22.284116 L54.7439957,22.8743094 L54.756257,22.8743094 C54.9156537,22.4747238 55.3449363,22.1980663 55.7680195,22.1980663 C55.8293259,22.1980663 55.9028936,22.2103591 55.9581382,22.2288674 L55.9581382,23.0403315 C55.878371,23.0218232 55.7496964,23.0095304 55.6454067,23.0095304 C55.0076822,23.0095304 54.7869791,23.4705801 54.7869791,24.0301105 L54.7869791,25.4625691 L53.9161525,25.4625691 L53.9161525,22.284116 Z" id="Fill-28" fill="#000000" mask="url(#mask-2)"></path>
                    <path d="M58.3984917,23.8333978 C58.3984917,23.3169613 58.2206342,22.8559116 57.6564774,22.8559116 C57.1660261,22.8559116 56.9513848,23.2862983 56.9513848,23.7596409 C56.9513848,24.2144751 57.1230428,24.7125414 57.6564774,24.7125414 C58.153266,24.7125414 58.3984917,24.288232 58.3984917,23.8333978 L58.3984917,23.8333978 Z M59.2263349,25.2596409 C59.2263349,25.7821547 59.0422779,26.6675138 57.5829097,26.6675138 C56.9574466,26.6675138 56.2278314,26.3724862 56.184848,25.6469337 L57.0494751,25.6469337 C57.1292423,25.9727624 57.392791,26.0835359 57.6994608,26.0835359 C58.1838504,26.0835359 58.4045534,25.7514917 58.3984917,25.2965193 L58.3984917,24.8784254 L58.3862304,24.8784254 C58.1961116,25.2104696 57.8158741,25.3702762 57.4357743,25.3702762 C56.4853183,25.3702762 56.0805582,24.6448619 56.0805582,23.7719337 C56.0805582,22.9480387 56.5528242,22.1980387 57.4419739,22.1980387 C57.8588575,22.1980387 58.1776508,22.3394751 58.3862304,22.7082597 L58.3984917,22.7082597 L58.3984917,22.2840884 L59.2263349,22.2840884 L59.2263349,25.2596409 Z" id="Fill-29" fill="#000000" mask="url(#mask-2)"></path>
                    <path d="M61.6543306,23.9071133 C61.5071952,24.0362569 61.2005254,24.0423343 60.9307772,24.0915055 C60.6608912,24.1468923 60.4156656,24.2391575 60.4156656,24.5587707 C60.4156656,24.8845994 60.6670907,24.9645718 60.9491002,24.9645718 C61.6298081,24.9645718 61.6543306,24.4235497 61.6543306,24.232942 L61.6543306,23.9071133 Z M59.643067,23.2616713 C59.6921121,22.4439917 60.4217273,22.1979972 61.1330195,22.1979972 C61.7646822,22.1979972 62.5250195,22.3394337 62.5250195,23.1017265 L62.5250195,24.7555939 C62.5250195,25.0444061 62.5557416,25.3334945 62.6355088,25.4625 L61.7524209,25.4625 C61.7216988,25.3641575 61.697314,25.2595994 61.6911145,25.1551796 C61.4151667,25.4441298 61.0104067,25.5485497 60.6241074,25.5485497 C60.0231667,25.5485497 59.544839,25.2474448 59.544839,24.5956492 C59.544839,23.8764503 60.0844732,23.7042127 60.6241074,23.6304558 C61.1576798,23.5504834 61.6543306,23.5689917 61.6543306,23.2125 C61.6543306,22.8373619 61.3967059,22.7821133 61.0901739,22.7821133 C60.7589815,22.7821133 60.5443401,22.9173343 60.5137558,23.2616713 L59.643067,23.2616713 Z" id="Fill-30" fill="#000000" mask="url(#mask-2)"></path>
                    <path d="M63.076667,22.284116 L63.9045102,22.284116 L63.9045102,22.7267956 L63.922971,22.7267956 C64.1436741,22.3701657 64.5237739,22.1980663 64.8917501,22.1980663 C65.8176836,22.1980663 66.050648,22.7205801 66.050648,23.5074586 L66.050648,25.4625691 L65.1799591,25.4625691 L65.1799591,23.6674033 C65.1799591,23.1447514 65.0266242,22.8866022 64.6220019,22.8866022 C64.1498736,22.8866022 63.9474936,23.1509669 63.9474936,23.796547 L63.9474936,25.4625691 L63.076667,25.4625691 L63.076667,22.284116 Z" id="Fill-31" fill="#000000" mask="url(#mask-2)"></path>
                    <path d="M66.4919715,25.4625691 L67.3626603,25.4625691 L67.3626603,22.284116 L66.4919715,22.284116 L66.4919715,25.4625691 Z M66.4919715,21.7922652 L67.3626603,21.7922652 L67.3626603,21.0729282 L66.4919715,21.0729282 L66.4919715,21.7922652 Z" id="Fill-32" fill="#000000" mask="url(#mask-2)"></path>
                    <polygon id="Fill-33" fill="#000000" mask="url(#mask-2)" points="67.730485 24.8046961 69.379972 22.941989 67.8532356 22.941989 67.8532356 22.284116 70.5266086 22.284116 70.5266086 22.941989 68.8772594 24.8046961 70.6431596 24.8046961 70.6431596 25.4625691 67.730485 25.4625691"></polygon>
                    <path d="M73.1202831,23.5321271 C73.0406537,23.0894475 72.8505349,22.855884 72.4274518,22.855884 C71.8755563,22.855884 71.7161596,23.2862707 71.7038983,23.5321271 L73.1202831,23.5321271 Z M71.7038983,24.085442 C71.7282831,24.6387569 71.9981691,24.8906906 72.4825587,24.8906906 C72.8320741,24.8906906 73.1142214,24.6756354 73.1693283,24.4788122 L73.9358651,24.4788122 C73.6906394,25.2289503 73.1693283,25.5485635 72.4518366,25.5485635 C71.4524732,25.5485635 70.8330717,24.8600276 70.8330717,23.8764641 C70.8330717,22.9234254 71.489257,22.198011 72.4518366,22.198011 C73.531105,22.198011 74.0524162,23.1079558 73.9911097,24.085442 L71.7038983,24.085442 Z" id="Fill-34" fill="#000000" mask="url(#mask-2)"></path>
                    <path d="M75.8857121,22.855884 C75.3153558,22.855884 75.1193131,23.3477348 75.1193131,23.8702486 C75.1193131,24.3681768 75.3460779,24.8906906 75.8857121,24.8906906 C76.4621302,24.8906906 76.6337881,24.3866851 76.6337881,23.8640331 C76.6337881,23.3477348 76.4498689,22.855884 75.8857121,22.855884 L75.8857121,22.855884 Z M76.6461872,25.0568508 L76.6337881,25.0568508 C76.4314081,25.4010497 76.0758309,25.5485635 75.6710708,25.5485635 C74.7144152,25.5485635 74.2483487,24.7248066 74.2483487,23.845663 C74.2483487,22.991105 74.7206147,22.198011 75.6527477,22.198011 C76.026648,22.198011 76.3946242,22.3579558 76.5970043,22.6714917 L76.5908048,22.6714917 L76.603066,22.6714917 L76.603066,21.073011 L77.4738926,21.073011 L77.4738926,25.4625138 L76.6461872,25.4625138 L76.6461872,25.0568508 Z" id="Fill-35" fill="#000000" mask="url(#mask-2)"></path>
                    <polygon id="Fill-36" fill="#000000" mask="url(#mask-2)" points="80.6498542 21.8845166 79.3377591 21.8845166 79.3377591 21.0730525 82.924942 21.0730525 82.924942 21.8845166 81.6125715 21.8845166 81.6125715 25.4625552 80.6498542 25.4625552"></polygon>
                    <polygon id="Fill-37" fill="#000000" mask="url(#mask-2)" points="83.3046974 21.0729834 86.5792865 21.0729834 86.5792865 21.8844475 84.2674147 21.8844475 84.2674147 22.8251934 86.3891677 22.8251934 86.3891677 23.5751934 84.2674147 23.5751934 84.2674147 24.6510221 86.6281938 24.6510221 86.6281938 25.4624862 83.3046974 25.4624862"></polygon>
                    <path d="M87.9955059,24.6509945 L88.8539335,24.6509945 C89.4118907,24.6509945 89.9454632,24.3067956 89.9454632,23.3353867 C89.9454632,22.4500276 89.6389311,21.884558 88.6821378,21.884558 L87.9955059,21.884558 L87.9955059,24.6509945 Z M87.0327886,21.0729558 L88.9214394,21.0729558 C90.0558147,21.0729558 90.9081805,21.7862155 90.9081805,23.2432597 C90.9081805,24.5157735 90.2581948,25.4624586 88.9214394,25.4624586 L87.0327886,25.4624586 L87.0327886,21.0729558 Z" id="Fill-38" fill="#000000" mask="url(#mask-2)"></path>
                    <path d="M95.0774713,23.5321271 C94.9978418,23.0894475 94.807723,22.855884 94.3846399,22.855884 C93.8327444,22.855884 93.6733477,23.2862707 93.6610865,23.5321271 L95.0774713,23.5321271 Z M93.6610865,24.085442 C93.6854713,24.6387569 93.9553572,24.8906906 94.4397468,24.8906906 C94.7892622,24.8906906 95.0714095,24.6756354 95.1265164,24.4788122 L95.8930532,24.4788122 C95.6478276,25.2289503 95.1265164,25.5485635 94.4090247,25.5485635 C93.4096613,25.5485635 92.7902599,24.8600276 92.7902599,23.8764641 C92.7902599,22.9234254 93.4464451,22.198011 94.4090247,22.198011 C95.4882931,22.198011 96.0096043,23.1079558 95.9482979,24.085442 L93.6610865,24.085442 Z" id="Fill-39" fill="#000000" mask="url(#mask-2)"></path>
                    <polygon id="Fill-40" fill="#000000" mask="url(#mask-2)" points="97.9716575 25.4625276 97.0027406 25.4625276 95.9174105 22.2840746 96.8310827 22.2840746 97.4993914 24.4542403 97.5116527 24.4542403 98.1800993 22.2840746 99.0447264 22.2840746"></polygon>
                    <path d="M101.294892,23.5321271 C101.215263,23.0894475 101.025144,22.855884 100.602061,22.855884 C100.050165,22.855884 99.8907686,23.2862707 99.8785074,23.5321271 L101.294892,23.5321271 Z M99.8785074,24.085442 C99.9028922,24.6387569 100.172778,24.8906906 100.657168,24.8906906 C101.006683,24.8906906 101.28883,24.6756354 101.343937,24.4788122 L102.110474,24.4788122 C101.865248,25.2289503 101.343937,25.5485635 100.626446,25.5485635 C99.6270822,25.5485635 99.0076808,24.8600276 99.0076808,23.8764641 C99.0076808,22.9234254 99.663866,22.198011 100.626446,22.198011 C101.705714,22.198011 102.227025,23.1079558 102.165581,24.085442 L99.8785074,24.085442 Z" id="Fill-41" fill="#000000" mask="url(#mask-2)"></path>
                    <path d="M102.557928,22.284116 L103.385771,22.284116 L103.385771,22.7267956 L103.404232,22.7267956 C103.624935,22.3701657 104.005173,22.1980663 104.373011,22.1980663 C105.298945,22.1980663 105.532047,22.7205801 105.532047,23.5074586 L105.532047,25.4625691 L104.661358,25.4625691 L104.661358,23.6674033 C104.661358,23.1447514 104.507886,22.8866022 104.103263,22.8866022 C103.630997,22.8866022 103.428617,23.1509669 103.428617,23.796547 L103.428617,25.4625691 L102.557928,25.4625691 L102.557928,22.284116 Z" id="Fill-42" fill="#000000" mask="url(#mask-2)"></path>
                    <path d="M107.175018,22.284116 L107.812742,22.284116 L107.812742,22.868232 L107.175018,22.868232 L107.175018,24.441989 C107.175018,24.7371547 107.248585,24.8107735 107.542994,24.8107735 C107.635022,24.8107735 107.720851,24.8046961 107.812742,24.786326 L107.812742,25.4686464 C107.665744,25.493232 107.475626,25.4994475 107.30383,25.4994475 C106.770257,25.4994475 106.304329,25.3765193 106.304329,24.743232 L106.304329,22.868232 L105.776956,22.868232 L105.776956,22.284116 L106.304329,22.284116 L106.304329,21.3312155 L107.175018,21.3312155 L107.175018,22.284116 Z" id="Fill-43" fill="#000000" mask="url(#mask-2)"></path>
                    <polygon id="Fill-44" fill="#E62B1E" mask="url(#mask-2)" points="4.08544561 6.55066298 -4.13301663e-05 6.55066298 -4.13301663e-05 2.80466851 12.6580109 2.80466851 12.6580109 6.55066298 8.57403943 6.55066298 8.57403943 17.4201381 4.08544561 17.4201381"></polygon>
                    <polygon id="Fill-45" fill="#E62B1E" mask="url(#mask-2)" points="13.355609 2.8046547 25.643343 2.8046547 25.643343 6.55064917 17.847096 6.55064917 17.847096 8.37191989 25.643343 8.37191989 25.643343 11.8529972 17.847096 11.8529972 17.847096 13.6744061 25.6454095 13.6744061 25.6454095 17.4201243 13.355609 17.4201243"></polygon>
                    <path d="M30.8904556,13.6743785 L32.6469876,13.6743785 C35.4449021,13.6743785 35.853933,11.4014503 35.853933,10.0285221 C35.853933,9.10904696 35.5665506,6.55062155 32.3199283,6.55062155 L30.8904556,6.55062155 L30.8904556,13.6743785 Z M26.3992442,2.80462707 L33.7697905,2.80462707 C38.6284271,2.80462707 40.34542,6.40752762 40.34542,10.090953 C40.34542,14.5752072 37.9769259,17.4202348 32.8927644,17.4202348 L26.3992442,17.4202348 L26.3992442,2.80462707 Z" id="Fill-46" fill="#E62B1E" mask="url(#mask-2)"></path>
                    <polygon id="Fill-47" fill="#E62B1E" mask="url(#mask-2)" points="46.7992081 11.7880249 45.4291131 9.51012431 44.0929088 11.7880249 40.802201 11.7880249 43.9262105 7.18222376 40.9180632 2.77656077 44.2100109 2.77656077 45.4291131 4.9543232 46.6830703 2.77656077 49.9740537 2.77656077 46.966733 7.18222376 50.0908803 11.7880249"></polygon>
                    <path d="M58.7704651,8.34340783 C59.6005702,8.34340783 60.2461978,8.22782066 60.7073674,7.99664286 C61.4320623,7.63336346 61.7944043,6.97947034 61.7944043,6.03494389 C61.7944043,5.08381237 61.4090042,4.44312922 60.6381923,4.11287521 C60.2033753,3.92793297 59.5577477,3.83546324 58.70129,3.83546324 L55.1931252,3.83546324 L55.1931252,8.34340783 L58.7704651,8.34340783 Z M59.4325694,15.0607406 C60.6381983,15.0607406 61.4979371,14.7106766 62.0118117,14.0105382 C62.3346304,13.5679978 62.4960373,13.0329943 62.4960373,12.4055117 C62.4960373,11.3486989 62.0249927,10.628756 61.0828892,10.2456614 C60.5821909,10.0409039 59.9200932,9.93852668 59.0965762,9.93852668 L55.1931252,9.93852668 L55.1931252,15.0607406 L59.4325694,15.0607406 Z M53.2661051,2.19080653 L59.5017445,2.19080653 C61.2014836,2.19080653 62.4103884,2.69939007 63.1284952,3.71657239 C63.5501359,4.31763468 63.7609531,5.01115768 63.7609531,5.7971622 C63.7609531,6.71526833 63.5007256,7.46823616 62.9802629,8.05608828 C62.7101493,8.36652704 62.3214551,8.65054122 61.8141687,8.90813934 C62.558628,9.19215779 63.1153171,9.51249936 63.4842528,9.86917369 C64.1364782,10.5032614 64.462586,11.3784213 64.462586,12.4946799 C64.462586,13.4326012 64.1694184,14.2813413 63.5830743,15.0409255 C62.7068522,16.1769993 61.3134824,16.7450276 59.402923,16.7450276 L53.2661051,16.7450276 L53.2661051,2.19080653 Z M73.1687641,6.42629293 C73.8736946,6.77966471 74.4106196,7.23705964 74.7795553,7.79849145 C75.1353146,8.33350293 75.3724839,8.95767363 75.4910704,9.67102227 C75.5964805,10.1597982 75.6491848,10.939186 75.6491848,12.0092089 L67.8916936,12.0092089 C67.9246343,13.085837 68.1782737,13.9494382 68.6526195,14.6000386 C69.1269653,15.250639 69.8615314,15.5759343 70.85634,15.5759343 C71.7852671,15.5759343 72.5264213,15.2688027 73.0798247,14.6545302 C73.3960552,14.2978559 73.6200485,13.8850446 73.7518112,13.4160839 L75.5009525,13.4160839 C75.4548356,13.8057837 75.3016637,14.2400612 75.0414323,14.7189295 C74.781201,15.1977978 74.4896803,15.5891429 74.1668617,15.8929766 C73.6266345,16.421383 72.9579488,16.7780519 72.1607843,16.9629942 C71.7325555,17.0686755 71.2483348,17.1215153 70.7081076,17.1215153 C69.3904805,17.1215153 68.2738082,16.6410029 67.3580573,15.6799638 C66.4423064,14.7189246 65.9844378,13.3731598 65.9844378,11.6426288 C65.9844378,9.93851816 66.4456004,8.55477465 67.3679394,7.49135676 C68.2902785,6.42793887 69.4958892,5.89623791 70.984808,5.89623791 C71.7358555,5.89623791 72.4638335,6.07292115 73.1687641,6.42629293 Z M73.8209863,10.5924263 C73.7485168,9.81963197 73.5805218,9.20206625 73.3169964,8.73971065 C72.8294743,7.88105024 72.0158518,7.45172648 70.8761043,7.45172648 C70.0591754,7.45172648 69.3740196,7.74729938 68.8206161,8.33845404 C68.2672127,8.9296087 67.9740451,9.68092529 67.9411044,10.5924263 L73.8209863,10.5924263 Z M79.7601611,15.1400012 C80.1356848,15.4372298 80.5803773,15.5858419 81.0942519,15.5858419 C81.7201248,15.5858419 82.3262243,15.4405323 82.9125683,15.1499088 C83.9007887,14.6677379 84.3948915,13.8784427 84.3948915,12.7819994 L84.3948915,11.3454017 C84.177483,11.4841084 83.8974915,11.5996955 83.5549084,11.6921667 C83.2123253,11.7846378 82.8763354,11.8506876 82.5469286,11.8903181 L81.4697738,12.0290241 C80.8241365,12.1148901 80.3399158,12.2502922 80.0170971,12.4352344 C79.4702818,12.7456732 79.1968783,13.2410468 79.1968783,13.92137 C79.1968783,14.4365663 79.3846373,14.8427726 79.7601611,15.1400012 Z M83.5054976,10.3150144 C83.913962,10.2621737 84.1873656,10.0904442 84.3257164,9.79982069 C84.4047741,9.64129877 84.4443023,9.41342693 84.4443023,9.11619833 C84.4443023,8.50853096 84.2285441,8.06764848 83.7970212,7.79353766 C83.3654983,7.51942684 82.7478698,7.38237349 81.9441172,7.38237349 C81.0151901,7.38237349 80.3563863,7.63336276 79.9676863,8.13534884 C79.7502778,8.41276221 79.608635,8.82557352 79.5427537,9.37379516 L77.8825517,9.37379516 C77.9154924,8.06598931 78.3387738,7.15615318 79.1524086,6.64425948 C79.9660434,6.13236578 80.9097797,5.87642277 81.9836458,5.87642277 C83.2288035,5.87642277 84.2400672,6.11420208 85.0174672,6.58976784 C85.7882791,7.06533361 86.1736793,7.80509147 86.1736793,8.80906364 L86.1736793,14.9220346 C86.1736793,15.1069769 86.2115605,15.255589 86.2873241,15.3678753 C86.3630876,15.4801617 86.5228475,15.536304 86.7666086,15.536304 C86.8456662,15.536304 86.9346047,15.5313503 87.0334267,15.5214427 C87.1322488,15.511535 87.2376574,15.4966738 87.3496557,15.4768586 L87.3496557,16.7945655 C87.072954,16.8738264 86.8621368,16.9233638 86.7171978,16.943179 C86.5722588,16.9629943 86.3746177,16.9729017 86.1242685,16.9729017 C85.5115719,16.9729017 85.0668794,16.7549374 84.7901777,16.3190021 C84.6452387,16.0878243 84.5431241,15.7608777 84.4838309,15.3381526 C84.1214834,15.8137184 83.6010285,16.2265297 82.9224505,16.5765989 C82.2438725,16.9266682 81.4961303,17.1017002 80.6792014,17.1017002 C79.6975692,17.1017002 78.8954757,16.8028248 78.2728968,16.205065 C77.650318,15.6073053 77.3390333,14.8592912 77.3390333,13.9610003 C77.3390333,12.9768434 77.645377,12.2139681 78.2580736,11.6723515 C78.8707703,11.130735 79.6745108,10.7971834 80.6693193,10.6716869 L83.5054976,10.3150144 Z M96.0805391,6.69875112 C96.8282925,7.27999816 97.2779261,8.28065278 97.4294532,9.70074499 L95.7000762,9.70074499 C95.594666,9.04684206 95.3542026,8.50358238 94.9786789,8.07094964 C94.6031552,7.63831689 94.0003498,7.42200377 93.1702446,7.42200377 C92.0370853,7.42200377 91.2267567,7.97682217 90.7392346,9.08647561 C90.4230041,9.80642934 90.2648912,10.6947993 90.2648912,11.7516121 C90.2648912,12.81503 90.4888845,13.7100049 90.9368777,14.4365637 C91.384871,15.1631225 92.0897909,15.5263965 93.0516588,15.5263965 C93.78953,15.5263965 94.3742183,15.3001759 94.8057412,14.8477279 C95.2372641,14.3952799 95.5353728,13.7760629 95.7000762,12.9900584 L97.4294532,12.9900584 C97.2318091,14.3969404 96.7377063,15.4256662 95.94713,16.0762666 C95.1565537,16.726867 94.14529,17.0521623 92.9133086,17.0521623 C91.5298001,17.0521623 90.4263039,16.54523 89.6027869,15.5313502 C88.7792699,14.5174705 88.3675176,13.2509654 88.3675176,11.7317969 C88.3675176,9.86916437 88.8187981,8.41937105 89.7213727,7.38237349 C90.6239474,6.34537592 91.7735598,5.82688491 93.1702446,5.82688491 C94.3626972,5.82688491 95.3327857,6.11750408 96.0805391,6.69875112 Z M105.834226,14.2532736 C106.272337,13.3582853 106.491389,12.3625844 106.491389,11.2661411 C106.491389,10.2753791 106.333276,9.46957145 106.017045,8.84869392 C105.516347,7.87114208 104.653314,7.38237349 103.427921,7.38237349 C102.340879,7.38237349 101.550314,7.79848729 101.056204,8.63072737 C100.562094,9.46296746 100.315042,10.4669246 100.315042,11.6426288 C100.315042,12.7720975 100.562094,13.7133073 101.056204,14.4662864 C101.550314,15.2192655 102.33429,15.5957494 103.408157,15.5957494 C104.587433,15.5957494 105.396114,15.148262 105.834226,14.2532736 Z M106.936086,7.19412965 C107.878189,8.10563069 108.349234,9.44644183 108.349234,11.2166033 C108.349234,12.927319 107.934187,14.3407849 107.104082,15.4570435 C106.273977,16.573302 104.986016,17.1314229 103.24016,17.1314229 C101.784182,17.1314229 100.627981,16.6377005 99.7715238,15.6502411 C98.9150661,14.6627816 98.4868437,13.3368317 98.4868437,11.6723515 C98.4868437,9.88897991 98.9381243,8.468909 99.8406989,7.4120962 C100.743273,6.35528339 101.955472,5.82688491 103.477332,5.82688491 C104.841076,5.82688491 105.993982,6.2826286 106.936086,7.19412965 Z M110.464015,6.1340196 L112.153863,6.1340196 L112.153863,7.63997032 C112.654562,7.0190928 113.184899,6.57325658 113.74489,6.3024483 C114.304882,6.03164002 114.927451,5.89623791 115.612617,5.89623791 C117.114712,5.89623791 118.12927,6.42133389 118.656321,7.47154162 C118.946199,8.04618358 119.091136,8.86850371 119.091136,9.93852668 L119.091136,16.7450276 L117.282701,16.7450276 L117.282701,10.0574175 C117.282701,9.41011968 117.187175,8.88832619 116.996119,8.49202138 C116.679888,7.83151338 116.106729,7.50126433 115.276624,7.50126433 C114.854983,7.50126433 114.509111,7.54419671 114.238998,7.63006275 C113.751476,7.77537451 113.323253,8.06599367 112.954318,8.50192895 C112.657852,8.8519982 112.465152,9.2136209 112.376212,9.58680793 C112.287272,9.95999495 112.242803,10.4933472 112.242803,11.1868806 L112.242803,16.7450276 L110.464015,16.7450276 L110.464015,6.1340196 Z M123.241641,12.0488392 C123.287757,12.8744742 123.482105,13.5448798 123.824688,14.060076 C124.476913,15.0244177 125.626526,15.5065813 127.27356,15.5065813 C128.011431,15.5065813 128.683411,15.4009016 129.289519,15.1895391 C130.462207,14.7800241 131.048543,14.0468712 131.048543,12.9900584 C131.048543,12.1974488 130.801491,11.6327229 130.307381,11.2958638 C129.806683,10.9656098 129.022706,10.6782932 127.955428,10.4339052 L125.988879,9.98806453 C124.704193,9.69744101 123.795044,9.37709943 123.261405,9.02703019 C122.339066,8.41936283 121.877903,7.51117795 121.877903,6.3024483 C121.877903,4.99464245 122.329184,3.92133305 123.231758,3.08248788 C124.134333,2.24364272 125.412412,1.82422642 127.066034,1.82422642 C128.587894,1.82422642 129.880796,2.19245411 130.94478,2.92892054 C132.008764,3.66538696 132.540748,4.84272482 132.540748,6.46096943 L130.692785,6.46096943 C130.593963,5.68156998 130.383146,5.08381921 130.060327,4.66769916 C129.460807,3.90811496 128.442955,3.52832855 127.006741,3.52832855 C125.847229,3.52832855 125.013843,3.77271285 124.506556,4.26148877 C123.99927,4.75026469 123.74563,5.31829306 123.74563,5.9655909 C123.74563,6.67893955 124.042092,7.20073304 124.635024,7.53098704 C125.023724,7.7423496 125.903227,8.00654884 127.27356,8.32359268 L129.309283,8.7892485 C130.290916,9.01382122 131.04854,9.32095283 131.582179,9.71065256 C132.504518,10.3909758 132.96568,11.3784205 132.96568,12.6730161 C132.96568,14.2846557 132.380992,15.4372248 131.211598,16.1307583 C130.042204,16.8242917 128.683421,17.1710532 127.135209,17.1710532 C125.33006,17.1710532 123.916926,16.7087045 122.895765,15.7839933 C121.874604,14.8658872 121.373913,13.6208482 121.393678,12.0488392 L123.241641,12.0488392 Z M135.574569,3.17165602 L137.373121,3.17165602 L137.373121,6.1340196 L139.06297,6.1340196 L139.06297,7.59043247 L137.373121,7.59043247 L137.373121,14.5158243 C137.373121,14.8857087 137.498294,15.1333955 137.748643,15.258892 C137.886994,15.3315479 138.117575,15.3678753 138.440394,15.3678753 C138.52604,15.3678753 138.618272,15.3662241 138.717094,15.3629215 C138.815916,15.359619 138.931207,15.3513628 139.06297,15.3381526 L139.06297,16.7450276 C138.858738,16.8044733 138.646273,16.8474057 138.425571,16.873826 C138.204868,16.9002464 137.966052,16.9134563 137.709115,16.9134563 C136.879009,16.9134563 136.315732,16.7004457 136.019266,16.274418 C135.7228,15.8483904 135.574569,15.2952232 135.574569,14.6149 L135.574569,7.59043247 L134.141657,7.59043247 L134.141657,6.1340196 L135.574569,6.1340196 L135.574569,3.17165602 Z M140.891168,6.1340196 L142.581017,6.1340196 L142.581017,7.96692015 C142.719368,7.61024582 143.058652,7.17596833 143.598879,6.66407462 C144.139106,6.15218092 144.761675,5.89623791 145.466606,5.89623791 C145.499547,5.89623791 145.555545,5.8995404 145.634602,5.90614548 C145.71366,5.91275056 145.848715,5.92596052 146.039771,5.94577576 L146.039771,7.82821416 C145.934361,7.80839892 145.837187,7.79518896 145.748247,7.78858388 C145.659307,7.7819788 145.562134,7.77867631 145.456724,7.77867631 C144.560737,7.77867631 143.872287,8.06764422 143.391353,8.64558873 C142.910419,9.22353323 142.669956,9.88898506 142.669956,10.6419642 L142.669956,16.7450276 L140.891168,16.7450276 L140.891168,6.1340196 Z M154.172784,6.42629293 C154.877714,6.77966471 155.414639,7.23705964 155.783575,7.79849145 C156.139334,8.33350293 156.376504,8.95767363 156.49509,9.67102227 C156.6005,10.1597982 156.653205,10.939186 156.653205,12.0092089 L148.895713,12.0092089 C148.928654,13.085837 149.182294,13.9494382 149.656639,14.6000386 C150.130985,15.250639 150.865551,15.5759343 151.86036,15.5759343 C152.789287,15.5759343 153.530441,15.2688027 154.083844,14.6545302 C154.400075,14.2978559 154.624068,13.8850446 154.755831,13.4160839 L156.504972,13.4160839 C156.458855,13.8057837 156.305684,14.2400612 156.045452,14.7189295 C155.785221,15.1977978 155.4937,15.5891429 155.170881,15.8929766 C154.630654,16.421383 153.961969,16.7780519 153.164804,16.9629942 C152.736575,17.0686755 152.252355,17.1215153 151.712127,17.1215153 C150.3945,17.1215153 149.277828,16.6410029 148.362077,15.6799638 C147.446326,14.7189246 146.988458,13.3731598 146.988458,11.6426288 C146.988458,9.93851816 147.44962,8.55477465 148.371959,7.49135676 C149.294298,6.42793887 150.499909,5.89623791 151.988828,5.89623791 C152.739875,5.89623791 153.467853,6.07292115 154.172784,6.42629293 Z M154.825006,10.5924263 C154.752537,9.81963197 154.584542,9.20206625 154.321016,8.73971065 C153.833494,7.88105024 153.019872,7.45172648 151.880124,7.45172648 C151.063195,7.45172648 150.378039,7.74729938 149.824636,8.33845404 C149.271233,8.9296087 148.978065,9.68092529 148.945124,10.5924263 L154.825006,10.5924263 Z M165.428558,6.42629293 C166.133488,6.77966471 166.670413,7.23705964 167.039349,7.79849145 C167.395108,8.33350293 167.632278,8.95767363 167.750864,9.67102227 C167.856274,10.1597982 167.908979,10.939186 167.908979,12.0092089 L160.151487,12.0092089 C160.184428,13.085837 160.438067,13.9494382 160.912413,14.6000386 C161.386759,15.250639 162.121325,15.5759343 163.116134,15.5759343 C164.045061,15.5759343 164.786215,15.2688027 165.339618,14.6545302 C165.655849,14.2978559 165.879842,13.8850446 166.011605,13.4160839 L167.760746,13.4160839 C167.714629,13.8057837 167.561457,14.2400612 167.301226,14.7189295 C167.040995,15.1977978 166.749474,15.5891429 166.426655,15.8929766 C165.886428,16.421383 165.217742,16.7780519 164.420578,16.9629942 C163.992349,17.0686755 163.508128,17.1215153 162.967901,17.1215153 C161.650274,17.1215153 160.533602,16.6410029 159.617851,15.6799638 C158.7021,14.7189246 158.244232,13.3731598 158.244232,11.6426288 C158.244232,9.93851816 158.705394,8.55477465 159.627733,7.49135676 C160.550072,6.42793887 161.755683,5.89623791 163.244602,5.89623791 C163.995649,5.89623791 164.723627,6.07292115 165.428558,6.42629293 Z M166.08078,10.5924263 C166.00831,9.81963197 165.840316,9.20206625 165.57679,8.73971065 C165.089268,7.88105024 164.275645,7.45172648 163.135898,7.45172648 C162.318969,7.45172648 161.633813,7.74729938 161.08041,8.33845404 C160.527006,8.9296087 160.233839,9.68092529 160.200898,10.5924263 L166.08078,10.5924263 Z M170.448692,3.17165602 L172.247244,3.17165602 L172.247244,6.1340196 L173.937093,6.1340196 L173.937093,7.59043247 L172.247244,7.59043247 L172.247244,14.5158243 C172.247244,14.8857087 172.372417,15.1333955 172.622766,15.258892 C172.761117,15.3315479 172.991698,15.3678753 173.314517,15.3678753 C173.400163,15.3678753 173.492395,15.3662241 173.591217,15.3629215 C173.690039,15.359619 173.80533,15.3513628 173.937093,15.3381526 L173.937093,16.7450276 C173.732861,16.8044733 173.520396,16.8474057 173.299694,16.873826 C173.078991,16.9002464 172.840175,16.9134563 172.583238,16.9134563 C171.753132,16.9134563 171.189855,16.7004457 170.893389,16.274418 C170.596923,15.8483904 170.448692,15.2952232 170.448692,14.6149 L170.448692,7.59043247 L169.01578,7.59043247 L169.01578,6.1340196 L170.448692,6.1340196 L170.448692,3.17165602 Z" id="BeaconStreet" fill="#000000" mask="url(#mask-2)"></path>
                </g>
            </g>
        </g>
    </g>
</svg>